<svg xmlns="http://www.w3.org/2000/svg" width="256" height="256" viewBox="0 0 100 100"><rect width="100" height="100" rx="20" fill="#05363a"></rect><path d="M49.39 45.14L49.39 45.14Q49.39 51.87 46.87 56.56Q44.36 61.25 40.07 63.84L40.07 63.84Q42.93 65.13 46.06 66.12Q49.18 67.10 51.84 67.92L51.84 67.92Q51.90 68.33 51.90 68.63Q51.90 68.94 51.90 69.21L51.90 69.21Q51.90 73.09 49.90 74.85Q47.89 76.62 44.63 76.62L44.63 76.62Q41.50 76.62 38.17 74.89Q34.84 73.15 31.37 69.89L31.37 69.89L28.24 66.97L27.83 66.97Q23.21 66.97 19.26 65.54Q15.32 64.11 12.46 61.36Q9.61 58.60 7.98 54.52Q6.34 50.44 6.34 45.14L6.34 45.14Q6.34 39.83 8.01 35.79Q9.68 31.74 12.57 28.99Q15.46 26.23 19.37 24.81Q23.28 23.38 27.83 23.38L27.83 23.38Q32.39 23.38 36.30 24.81Q40.21 26.23 43.13 28.99Q46.06 31.74 47.72 35.79Q49.39 39.83 49.39 45.14ZM37.15 45.14L37.15 45.14Q37.15 39.02 34.63 35.99Q32.12 32.97 27.83 32.97L27.83 32.97Q23.68 32.97 21.13 35.96Q18.58 38.95 18.58 45.14L18.58 45.14Q18.58 51.33 21.10 54.35Q23.62 57.38 27.90 57.38L27.90 57.38Q32.12 57.38 34.63 54.35Q37.15 51.33 37.15 45.14ZM93.66 64.45L93.66 64.45Q92.70 65.40 90.90 65.91Q89.10 66.42 86.58 66.42L86.58 66.42Q84.07 66.42 81.82 65.67Q79.58 64.93 78.15 62.07L78.15 62.07L71.42 48.33Q70.40 46.23 69.58 44.36Q68.77 42.49 67.82 40.04L67.82 40.04L67.34 40.17Q67.68 44.46 67.71 48.10Q67.75 51.73 67.75 55.07L67.75 55.07L67.75 65.88Q67 66.01 65.50 66.22Q64.01 66.42 62.44 66.42L62.44 66.42Q58.98 66.42 57.65 65.23Q56.32 64.04 56.32 60.98L56.32 60.98L56.32 26.78Q57.28 25.42 59.25 24.74Q61.22 24.06 63.46 24.06L63.46 24.06Q65.98 24.06 68.26 24.84Q70.54 25.62 71.90 28.41L71.90 28.41L78.70 42.15Q79.72 44.25 80.53 46.12Q81.35 47.99 82.30 50.44L82.30 50.44L82.57 50.37Q82.30 47.11 82.27 44.22Q82.23 41.33 82.23 38.68L82.23 38.68L82.23 24.47Q82.98 24.33 84.48 24.13Q85.97 23.92 87.54 23.92L87.54 23.92Q91.00 23.92 92.33 25.11Q93.66 26.30 93.66 29.36L93.66 29.36L93.66 64.45Z" fill="#fd8cff"></path></svg>